<?xml version="1.0" encoding="utf-8"?>
<!-- Generator: Adobe Illustrator 25.4.1, SVG Export Plug-In . SVG Version: 6.00 Build 0)  -->
<svg version="1.1" id="Layer_1" xmlns="http://www.w3.org/2000/svg" xmlns:xlink="http://www.w3.org/1999/xlink" x="0px" y="0px"
	 viewBox="0 0 24 24" style="enable-background:new 0 0 24 24;" xml:space="preserve">
<style type="text/css">
	.st0{fill:#BD9E59;}
</style>
<path class="st0" d="M16.6,12.9c-0.7,0.3-1.4,0.6-2,0.9c0,0.1,0,0.1,0,0.1c1,0.4,0.9,1.3,0.8,2.1c0,0.2-0.3,0.5-0.4,0.7
	c-0.2,0.3-0.4,0.6-0.4,0.9c-0.2,1.1-0.3,2.3-0.5,3.4c-0.9,0-1.9,0-2.8,0c-0.1-1.1-0.3-2.2-0.4-3.4c0-0.4-0.2-0.8-0.5-1
	c-0.3-0.3-0.4-0.6-0.4-1c0-1,0-1,0.9-1.9c-0.7-0.3-1.4-0.7-2.2-1c-0.2,0.5-0.4,0.9-0.6,1.3c-0.1,0.1-0.2,0.3-0.3,0.3
	c-0.6,0.2-1.2,0.4-1.8,0.6c-0.1-0.9-0.1-1.6,0.6-2.3c0.5-0.5,0.6-1,0.6-1.7c0-1.1,0-2.3,0-3.4c0-0.2,0-0.6-0.2-0.7
	C6.5,6.3,6.8,5.4,6.7,4.6c0.7,0,1.4,0,2,0c0,0.8,0,1.6,0,2.3c0,0.7,0,0.7,0.7,1.2c0-1.3,0-2.6,0-3.8c0.7,0,1.3-0.1,1.9-0.1
	c0.2,0,0.5,0.3,0.6,0.5c0.1,0.1,0,0.4-0.1,0.5c-0.1,0.3-0.3,0.7-0.4,1c0.8,0,1.5,0,2.3,0c-0.2-0.4-0.3-0.7-0.4-1
	c-0.1-0.2-0.1-0.4-0.1-0.5c0.2-0.2,0.4-0.5,0.6-0.5c0.6,0,1.2,0,1.9,0.1c0.1,1.2,0,2.5,0.1,3.8c0.5-0.3,0.7-0.6,0.7-1
	c0-0.8,0-1.6,0-2.5c0.7,0,1.4,0,2.1,0c0,0.6,0,1.1,0,1.7c0,0.1-0.1,0.3-0.1,0.3c-0.4,0.4-0.5,0.9-0.5,1.4c0,1,0,2.1,0,3.1
	c0,0.6,0.1,1.2,0.6,1.6c0.7,0.7,0.8,1.4,0.6,2.4c-0.6-0.2-1.3-0.4-1.9-0.7c-0.1,0-0.2-0.2-0.2-0.3C17,13.7,16.8,13.3,16.6,12.9z
	 M13.5,7.8c0,0.4,0,0.7,0,1c0,0.6-0.3,0.9-0.8,1c-0.5,0-0.8-0.4-0.8-1c0-0.3,0-0.6,0-0.9c-0.8,0.2-1.5,1-1.6,2c-0.1,1,0.4,2,1.2,2.4
	c0.3-0.6,0.6-1.3,1.3-1.7c0.4,0.6,0.8,1.1,1.2,1.7c0.8-0.6,1.2-1.4,1.1-2.4C15,8.9,14.5,8.3,13.5,7.8z"/>
<path class="st0" d="M5.7,15.2c-0.6,0-1.1,0-1.7,0C4,11.4,4,7.7,4,4c0.9-0.3,1.6,0,2.3,0.5c0.1,0,0.1,0.2,0.1,0.3c0,0.3,0,0.7,0,1
	c0,0.5,0.1,0.9,0.4,1.2C6.9,7.2,7,7.5,7,7.8c0,1.2,0,2.3,0,3.5c0,0.4-0.1,0.9-0.4,1.2c-0.6,0.7-1,1.5-0.9,2.4c0,0.1,0,0.1,0,0.2
	C5.7,15.1,5.7,15.1,5.7,15.2z"/>
<path class="st0" d="M21.4,15.2c-0.5,0-1.1,0-1.7,0c0-0.2,0-0.5,0-0.7c0-0.6-0.1-1.2-0.6-1.7c-0.5-0.5-0.7-1.2-0.7-1.9
	c0-1,0-2.1,0-3.1c0-0.2,0.1-0.5,0.2-0.7c0.3-0.4,0.4-0.8,0.4-1.3c0-0.1,0-0.3,0-0.4c0-0.3-0.1-0.8,0.1-0.9c0.4-0.3,0.9-0.4,1.4-0.5
	c0.2-0.1,0.5,0,0.8,0C21.4,7.6,21.4,11.4,21.4,15.2z"/>
</svg>
