<?xml version="1.0" encoding="utf-8"?>
<!-- Generator: Adobe Illustrator 25.4.1, SVG Export Plug-In . SVG Version: 6.00 Build 0)  -->
<svg version="1.1" id="Layer_1" xmlns="http://www.w3.org/2000/svg" xmlns:xlink="http://www.w3.org/1999/xlink" x="0px" y="0px"
	 viewBox="0 0 24 24" style="enable-background:new 0 0 24 24;" xml:space="preserve">
<style type="text/css">
	.st0{fill:#BD9E59;}
</style>
<g>
	<path class="st0" d="M11.2,19.3c0-0.2,0-0.3,0-0.5c0.4-1.5,0.3-3,0-4.6c-0.1-0.8-0.2-1.6-0.3-2.4c-0.1-0.6-0.4-1.2-0.8-1.7
		C9.8,9.8,9.6,9.4,9.5,9c-0.1-0.2,0-0.5,0.1-0.7c0.1-0.1,0.5-0.1,0.6,0c1.5,0.7,2.9,0.8,4.4,0.1c0.2-0.1,0.6-0.1,0.7,0
		c0.1,0.2,0.2,0.6,0.1,0.8c-0.2,0.5-0.5,0.9-0.9,1.4c-0.4,0.5-0.6,1.1-0.6,1.8c0,0.7,0,1.4,0,2.1c0,1-0.2,2-0.6,3
		c-0.5,1.2-0.7,2.4-0.4,3.7c0.1,0.3,0,0.6,0,0.9c0,0.1-0.1,0.4-0.2,0.4c-0.2,0.1-0.4,0-0.7,0c-0.1,0-0.2-0.1-0.2-0.2
		c-0.3-0.9-0.6-1.7-0.9-2.6C11.1,19.4,11.1,19.3,11.2,19.3z"/>
	<path class="st0" d="M14.3,19.2c-0.2-0.8,0-1.4,0.2-2.1c0.3-0.8,0.4-1.6,0.3-2.5c0-0.8,0-1.6,0.1-2.3c0.2-1.6,1.1-2.6,2.4-3.3
		c0.6-0.3,1.2-0.6,1.8-0.8c0.1,0,0.3,0,0.4,0c0,0.1,0,0.2,0,0.3C19.3,9,19,9.5,18.7,10c-0.4,0.7-0.8,1.3-1.2,1.9
		c-0.1,0.2-0.2,0.4-0.3,0.7c1.1,0.1,2.2,0.1,3.3,0.2c-0.7,1.1-1.8,1.6-2.9,2.2c0.7,0.6,1.3,1.1,2.1,1.8c-0.9,0.1-1.6,0.2-2.3,0.2
		c-0.9,0-1.5,0.3-1.9,1.1C15.3,18.6,14.9,19,14.3,19.2z"/>
	<path class="st0" d="M10,18.6c-0.1-0.1-0.2-0.1-0.2-0.1c-0.6-1.2-1.6-1.4-2.8-1.5c-0.5,0-1-0.1-1.6-0.2c0,0,0-0.1,0-0.1
		c0.6-0.5,1.3-1.1,1.9-1.6c-1-0.7-2.1-1.2-2.9-2.2c1.2-0.1,2.3-0.1,3.4-0.2c-0.1-0.2-0.1-0.3-0.2-0.4c-0.6-1-1.2-1.9-1.9-2.9
		C5.6,8.9,5.4,8.5,5.5,7.9c1.4,0.6,2.8,1.2,3.8,2.4c0.5,0.6,0.7,1.2,0.8,1.9c0,0.9,0,1.8,0,2.7c0,0.4,0.1,0.8,0.2,1.1
		C10.5,16.9,10.2,17.7,10,18.6z"/>
	<path class="st0" d="M15.7,5c0,1.8-1.5,3.2-3.3,3.2c-1.7,0-3.1-1.5-3.1-3.2c0-1.8,1.4-3.2,3.2-3.2C14.2,1.8,15.7,3.3,15.7,5z
		 M10.6,4.4c0,0.4,0.4,0.9,0.7,0.9c0.4,0,0.8-0.5,0.8-1c0-0.4-0.3-0.8-0.7-0.8C11.1,3.4,10.6,3.9,10.6,4.4z"/>
</g>
</svg>
