<?xml version="1.0" encoding="utf-8"?>
<!-- Generator: Adobe Illustrator 25.4.1, SVG Export Plug-In . SVG Version: 6.00 Build 0)  -->
<svg version="1.1" id="Layer_1" xmlns="http://www.w3.org/2000/svg" xmlns:xlink="http://www.w3.org/1999/xlink" x="0px" y="0px"
	 viewBox="0 0 24 24" style="enable-background:new 0 0 24 24;" xml:space="preserve">
<style type="text/css">
	.st0{fill:#BD9E59;}
</style>
<path class="st0" d="M18.4,10.3c-0.6-0.1-1.3-0.3-2-0.5c-0.8-0.2-1.7-0.5-2.5-0.6C13,9,12.2,8.5,11.4,8c-0.2-0.1-0.2-0.2,0-0.3
	c0.8-1,1.6-2.1,2.4-3.1c0.2-0.2,0.3-0.2,0.6-0.2c2.1,0.5,4.2,1,6.3,1.5c0.4,0.1,0.5,0.3,0.3,0.7C20.3,7.7,19.6,8.9,19,10
	C18.9,10.2,18.8,10.3,18.4,10.3z"/>
<path class="st0" d="M14.2,14.2c0,0.8,0,1.5,0,2.3c0,0.7-0.2,1.2-0.9,1.5c-1.4,0.8-2.7,1.6-4,2.4c-0.3,0.2-0.5,0.2-0.5-0.2
	c0-1.7-0.1-3.5,0-5.2c0-0.6,0.3-1,0.8-1.3c1.3-0.8,2.6-1.6,3.9-2.3c0.4-0.3,0.5-0.2,0.6,0.3C14.2,12.5,14.2,13.4,14.2,14.2
	C14.2,14.2,14.2,14.2,14.2,14.2z"/>
<path class="st0" d="M8,17.6c0,0.8,0,1.7,0,2.5c0,0.4-0.1,0.4-0.4,0.2c-1.4-0.9-2.9-1.7-4.3-2.6c-0.4-0.3-0.6-0.6-0.6-1.1
	c0-1.7,0-3.3,0-5c0-0.6,0.1-0.6,0.6-0.3c1.3,0.8,2.6,1.6,3.9,2.3C7.8,14.1,8,14.6,8,15.2C8,16,8,16.8,8,17.6C8,17.6,8,17.6,8,17.6z"
	/>
<path class="st0" d="M8.4,13.4c-0.2,0-0.4-0.1-0.6-0.2c-1.3-0.8-2.6-1.5-3.8-2.3c-0.6-0.4-0.6-0.6,0-1c1.3-0.8,2.6-1.5,3.9-2.3
	c0.5-0.3,0.9-0.3,1.3,0c1.3,0.8,2.6,1.6,3.9,2.3c0.6,0.3,0.6,0.6,0,0.9c-1.3,0.8-2.6,1.6-3.9,2.4C8.9,13.3,8.6,13.4,8.4,13.4z"/>
<path class="st0" d="M14.6,10.1c0.3,0,0.6,0.1,0.9,0.1c0.9,0.2,1.7,0.4,2.6,0.7c0.3,0.1,0.5,0.2,0.5,0.6c0,1.7,0,3.5-0.1,5.2
	c0,0.6-0.1,0.7-0.7,0.5c-0.8-0.2-1.5-0.4-2.3-0.6c-0.3-0.1-0.4-0.2-0.4-0.5c0.1-1.2,0.1-2.5,0.1-3.7C15.1,11.6,15.2,10.8,14.6,10.1z
	"/>
<path class="st0" d="M21.3,7.3c0,1.8,0,3.6,0,5.4c0,0.7-0.5,1.3-0.8,2c-0.3,0.6-0.5,1.2-0.9,1.8c-0.1,0.1-0.1,0.3-0.3,0.2
	c-0.1,0-0.1-0.2-0.1-0.3c0-1.6,0-3.2,0-4.8c0-0.3,0-0.6,0.2-0.8c0.6-1.1,1.2-2.2,1.8-3.3C21.2,7.4,21.3,7.4,21.3,7.3z"/>
</svg>
