<?xml version="1.0" encoding="utf-8"?>
<!-- Generator: Adobe Illustrator 25.4.1, SVG Export Plug-In . SVG Version: 6.00 Build 0)  -->
<svg version="1.1" id="Layer_1" xmlns="http://www.w3.org/2000/svg" xmlns:xlink="http://www.w3.org/1999/xlink" x="0px" y="0px"
	 viewBox="0 0 24 24" style="enable-background:new 0 0 24 24;" xml:space="preserve">
<style type="text/css">
	.st0{fill:#BD9E59;}
</style>
<path class="st0" d="M20.6,14.5c-0.3,0.2-0.6,0.4-0.9,0.5c-0.1,0-0.3,0-0.4-0.1c-0.1-0.1,0.1-0.2,0.1-0.2c1.8-1,2.8-2.7,2.4-5
	c-0.1-0.4-0.3-0.8-0.8-1c-0.4-0.2-0.7,0.1-1,0.4c-0.3,0.3-0.3,0.8-0.1,1.1c0.3,0.4,0.5,0.2,0.8,0c0.3-0.1,0.6,0,0.5,0.4
	c0,0.5-0.1,0.9-0.5,1.2c-0.4,0.3-0.9,0.2-1.2-0.2c-0.3-0.7-0.5-1.4-0.3-2.2c0.1-0.6,0.3-1.2,0.2-1.8c0.1-0.8-0.1-1.5-0.2-2.2
	C19.2,4.9,19,4.9,18.6,5c-1,0.2-1.8,0.7-2.6,1.2c-0.4,0.3-0.8,0.2-1.2,0c-1.8-0.9-3.6-0.8-5.4,0C8.9,6.3,8.4,6.4,8,6.1
	C7.2,5.5,6.3,5.2,5.3,4.9C5,4.8,4.8,5,4.8,5.3C4.6,6.4,4.4,7.6,4.6,8.8c0.2,0.9,0.2,1.8-0.2,2.6c-0.3,0.6-0.8,0.7-1.3,0.3
	c-0.3-0.3-0.4-0.6-0.5-1c0-0.2-0.1-0.4,0.1-0.5c0.2-0.1,0.3-0.1,0.5,0.1c0.2,0.1,0.3,0.2,0.5,0c0.2-0.2,0.3-0.5,0.3-0.8
	C4.1,9.1,3.7,8.8,3.3,8.7C3.1,8.6,2.8,8.6,2.6,8.9c-0.2,0.3-0.5,0.6-0.5,1C2,11,2.1,12,2.7,13c0.4,0.7,1,1.2,1.7,1.7
	c0.1,0.1,0.2,0.1,0.2,0.3C4.6,15,4.4,15,4.3,15c-0.1,0-0.2-0.1-0.3-0.1c-0.4-0.1-0.7-0.5-1-0.7c-0.1-0.1-0.2-0.2-0.4,0
	c-0.1,0.1,0,0.2,0.1,0.3C3.1,15,3.4,15.6,3.9,16c1.4,1.4,3,2.2,4.9,2.7c3,0.7,5.9,0.5,8.7-0.8c1.5-0.7,2.7-1.7,3.6-3
	c0.1-0.2,0.5-0.5,0.2-0.7C21,14,20.8,14.3,20.6,14.5z M9,15.3c-1,0-1.8-1.2-1.8-2.6S8,10.1,9,10.1c1,0,1.8,1.2,1.8,2.6
	S10,15.3,9,15.3z M13,16.9c-0.1,0.1-0.2,0.1-0.3,0.1c-0.2-0.1-0.4-0.2-0.6-0.2c-0.3,0-0.4,0.1-0.6,0.2c-0.2,0-0.3,0.1-0.5-0.1
	c-0.1-0.2,0.1-0.2,0.2-0.3c0,0,0,0,0,0c1-0.9,0.8-0.7,1.7,0.1C13,16.6,13.1,16.7,13,16.9z M15,15.3c-1,0-1.8-1.2-1.8-2.6
	s0.8-2.6,1.8-2.6c1,0,1.8,1.2,1.8,2.6S16,15.3,15,15.3z"/>
</svg>
