<?xml version="1.0" encoding="utf-8"?>
<!-- Generator: Adobe Illustrator 25.4.1, SVG Export Plug-In . SVG Version: 6.00 Build 0)  -->
<svg version="1.1" id="Layer_1" xmlns="http://www.w3.org/2000/svg" xmlns:xlink="http://www.w3.org/1999/xlink" x="0px" y="0px"
	 viewBox="0 0 24 24" style="enable-background:new 0 0 24 24;" xml:space="preserve">
<style type="text/css">
	.st0{fill:#BD9E59;}
</style>
<path class="st0" d="M2.9,8.2C3,5.7,3.1,4.3,6.4,2.8c0.2-0.1,0.4-0.2,0.5-0.1C7.1,2.8,7,3.1,7,3.3c0,0.1,0,0.2-0.1,0.3
	C6.7,5.5,7,7.3,7.6,9c0.6,1.5,1.1,2.9,1.7,4.4c0.4,1.1,0.9,2.1,1.4,3.1c0.2,0.5,0.2,0.6-0.3,0.8C9,18,7.6,17.7,6.2,17
	c-0.7-0.4-1-1.1-1.3-1.8c-0.6-1.8-1.2-3.7-1.8-5.5C3,9.1,3,8.6,2.9,8.2z"/>
<path class="st0" d="M19.4,12.7c-0.1,1-0.6,2.2-1,3.1c-0.5,1.1-1,2.2-1.6,3.3c-0.7,1.1-1.6,2.1-2.8,2.6c-1.9,0.8-3.9,0.5-5.4-0.6
	c-0.1-0.1-0.2-0.2-0.2-0.4c0,0,0.2-0.2,0.3-0.2c1.8-0.4,3-1.6,4-3.1c0.6-0.9,1-1.9,1.4-2.9c0.6-1.6,1.2-3.3,1.7-4.9
	c0.1-0.3,0.1-0.6,0.2-0.9c0.1-0.4,0.3-0.4,0.5-0.3c0.3,0.2,0.6,0.4,0.8,0.6C18.4,10.2,19.5,11.3,19.4,12.7z"/>
<path class="st0" d="M20.8,7.7c-0.1,0.5-0.1,0.9-0.1,1.3c-0.1,0.4-0.3,0.5-0.6,0.2c-1.5-1.4-3.5-1.7-5.4-2.1c-2-0.3-4.1-0.3-6.1,0
	C8.1,7.3,7.9,7.1,8,6.8c0.4-1.5,0.9-3.1,2.4-3.9c0.7-0.4,1.5-0.7,2.3-0.7c2-0.1,3.9,0.2,5.7,1.3C20,4.5,20.6,6.1,20.8,7.7z"/>
</svg>
