<?xml version="1.0" encoding="utf-8"?>
<!-- Generator: Adobe Illustrator 25.4.1, SVG Export Plug-In . SVG Version: 6.00 Build 0)  -->
<svg version="1.1" id="Layer_1" xmlns="http://www.w3.org/2000/svg" xmlns:xlink="http://www.w3.org/1999/xlink" x="0px" y="0px"
	 viewBox="0 0 24 24" style="enable-background:new 0 0 24 24;" xml:space="preserve">
<style type="text/css">
	.st0{fill:#BD9E59;}
</style>
<path class="st0" d="M4.1,6.2c1.2,0.2,2.4,0.5,3.6,0.7C8.2,7,8.6,7,9.1,6.8c2.1-0.9,4.1-0.8,6.1,0.1C15.4,7,15.7,7,15.9,7
	c1.3-0.2,2.7-0.5,4.1-0.8c-0.2,1.3-0.5,2.5-0.7,3.7c-0.1,0.5-0.1,1,0.1,1.5c0.2,0.6,0.4,1.1,0.6,1.7c0,0.1,0.1,0.3,0,0.4
	c-1.3,2.2-3,4-5.6,4.8c-2.6,0.8-5,0.2-7.1-1.4c-1.2-0.9-2.2-2-2.9-3.3c-0.1-0.2-0.1-0.4-0.1-0.6c0-0.1,0.1-0.3,0.1-0.4
	C5.2,11,4.7,9.4,4.4,7.7C4.3,7.2,4.2,6.7,4.1,6.2z M9.4,13.3c-0.1,0.8,0,1,0.3,1.4c1.2,1.6,3.6,1.6,4.7-0.1c0.3-0.4,0.3-0.9,0.3-1.4
	C12.9,14.5,11.1,14.4,9.4,13.3z M10.2,12.2c0.2-0.8-0.5-2.1-1.3-2.4c-0.2-0.1-0.5-0.1-0.7,0c-0.6,0.2-1.4,1.3-1.4,1.9
	c0,0.2,0,0.3,0,0.6C7.9,11.3,8.8,11.3,10.2,12.2z M13.8,12.3c0.5-0.6,1-0.8,1.7-0.8c0.7,0,1.2,0.3,1.7,0.9c0.1-1-0.3-1.8-1-2.3
	c-0.4-0.3-0.8-0.3-1.2-0.1C14.2,10.2,13.6,11.3,13.8,12.3z"/>
</svg>
