<?xml version="1.0" encoding="utf-8"?>
<!-- Generator: Adobe Illustrator 25.4.1, SVG Export Plug-In . SVG Version: 6.00 Build 0)  -->
<svg version="1.1" id="Layer_1" xmlns="http://www.w3.org/2000/svg" xmlns:xlink="http://www.w3.org/1999/xlink" x="0px" y="0px"
	 viewBox="0 0 24 24" style="enable-background:new 0 0 24 24;" xml:space="preserve">
<style type="text/css">
	.st0{fill:#BD9E59;}
</style>
<path class="st0" d="M14.1,17.7c-1.4,0-2.8,0-4.1,0c-0.1,0-0.2-0.1-0.3-0.2c-0.4-0.6-0.7-1.3-1.1-2c-0.4-0.8-0.9-1.5-1.2-2.3
	c-0.2-0.5-0.1-1.2-0.1-1.7c0.1-0.5,0.4-0.8,1-0.9c1-0.1,2.1-1.1,2-2.1c0-0.6,0.3-0.8,0.9-0.8c0.5,0,1,0,1.5,0c0.5,0,0.9,0.2,0.8,0.8
	c-0.1,1.1,1.2,2.1,2.1,2.2c0.5,0,0.8,0.4,0.9,0.8c0.3,0.9,0.1,1.7-0.3,2.5c-0.3,0.5-0.5,1-0.8,1.5c-0.2,0.4-0.5,0.7-0.7,1.1
	C14.5,16.8,14.3,17.2,14.1,17.7z M13.3,11.4c-0.6,0-1.2,0.5-1.2,1.2c0,0.7,0.5,1.2,1.2,1.2c0.6,0,1.1-0.5,1.1-1.2
	C14.5,12,14,11.5,13.3,11.4z M10.9,15.3c0.4,0,0.8-0.4,0.8-0.8c0-0.4-0.4-0.8-0.8-0.8c-0.4,0-0.8,0.3-0.8,0.8
	C10.2,14.9,10.5,15.3,10.9,15.3z"/>
<path class="st0" d="M5.6,15.9c-0.7,0.1-1.1-0.1-1.5-0.4C3,14.6,2.4,13.4,2.4,12c-0.1-2,1-3.4,2.6-4.5c0.1-0.1,0.2-0.2,0.3-0.2
	c0.8-0.2,0.9-0.8,0.9-1.5c0-1.2,1-2.6,2.1-3c0.2-0.1,0.4-0.1,0.6-0.1c0.2,0,0.3,0.1,0.5,0.1C9.3,3,9.2,3.2,9.1,3.2
	C8.3,3.8,7.8,4.5,7.7,5.4c-0.2,0.8,0.2,1.2,1,1.4c0.7,0.1,1.2,0.8,1.1,1.5c-0.2,1.2-1.2,1.8-2.3,1.5C6.8,9.6,6.2,9.5,5.5,9.7
	c-1.5,0.5-2.2,2-1.7,3.7c0.2,0.7,0.6,1.2,1.1,1.7C5.2,15.3,5.3,15.5,5.6,15.9z"/>
<path class="st0" d="M18.4,15.8c0.2-0.3,0.5-0.6,0.7-0.8c0.9-0.9,1.3-2,1-3.3c-0.3-1.4-1.7-2.3-3.2-2c-0.2,0-0.4,0.1-0.6,0.1
	c-1.1,0.2-2-0.4-2.2-1.5c-0.1-0.7,0.4-1.4,1.1-1.5c0.8-0.1,1.1-0.5,1-1.3c-0.2-0.9-0.6-1.7-1.4-2.2c-0.2-0.1-0.3-0.2-0.5-0.4
	c0-0.1,0-0.1,0-0.2c0.3,0,0.6,0,0.8,0c1.2,0.2,2.3,1.7,2.4,3c0,0.1,0,0.3,0,0.4c0,0.5,0.2,0.8,0.6,1C19.8,8,21,9,21.5,10.6
	c0.4,1.8,0,3.3-1.3,4.6c-0.4,0.4-1,0.7-1.6,0.7C18.5,15.9,18.5,15.8,18.4,15.8z"/>
<path class="st0" d="M10.1,5.3c0.3-0.7,0.9-1,1.8-1c0.9,0,1.5,0.4,1.8,1C13.5,5.7,13.2,6,13,6.4c-0.1,0.1-0.2,0.2-0.3,0.2
	c-0.2,0-0.4,0-0.6,0c-0.6,0.1-1.1,0-1.4-0.7C10.6,5.7,10.3,5.5,10.1,5.3z"/>
<path class="st0" d="M10.4,19.1c0.3-0.5,0.6-0.7,1.2-0.7c0.3,0,0.6,0,0.9,0c0.6-0.1,0.9,0.2,1.2,0.7c-0.4,0.6-0.8,1.3-1.3,2
	c-0.2,0.3-0.5,0.3-0.7,0C11.2,20.4,10.8,19.7,10.4,19.1z"/>
</svg>
