<?xml version="1.0" encoding="utf-8"?>
<!-- Generator: Adobe Illustrator 25.4.1, SVG Export Plug-In . SVG Version: 6.00 Build 0)  -->
<svg version="1.1" id="Layer_1" xmlns="http://www.w3.org/2000/svg" xmlns:xlink="http://www.w3.org/1999/xlink" x="0px" y="0px"
	 viewBox="0 0 24 24" style="enable-background:new 0 0 24 24;" xml:space="preserve">
<style type="text/css">
	.st0{fill:#BD9E59;}
</style>
<path class="st0" d="M16.5,9.3c0-0.1-0.1-0.2-0.1-0.4c-0.9-2.9-5-3.7-7.1-1.5c-1.3,1.5-1,3.8,0.7,5.1c1.2,0.9,2.6,1.1,4.1,0.7
	c0.3,0.7,0.5,1.3,0.2,2.1c0,0.1-0.2,0.3-0.4,0.3c-3.2,0.5-6.6-1.2-7.7-4.3C5.4,8.7,6.4,6.2,8.7,4.8c2.5-1.4,4.9-1.2,7,0.6
	c1,0.8,1.1,2,1,3.2C16.6,8.8,16.6,9,16.5,9.3C16.5,9.3,16.5,9.3,16.5,9.3z"/>
<path class="st0" d="M7.6,14.8c0.3,1.1,0.9,1.9,1.8,2.4c1.2,0.7,2.5,0.9,3.9,0.4c2.6-0.9,3.1-4.1,1-5.9c-1.2-1-2.5-1.3-4-0.9
	c-0.1,0-0.1,0-0.2,0c-0.3-0.5-0.5-1.1-0.4-1.6c0-0.4,0.2-0.7,0.7-0.7c2.7-0.4,5.6,1,7,3.3c1.4,2.4,0.8,5.3-1.4,7
	c-2.5,1.9-5.9,1.6-7.8-0.7c-0.8-1-0.9-2-0.6-3.2C7.5,15,7.5,14.9,7.6,14.8z"/>
</svg>
