<?xml version="1.0" encoding="utf-8"?>
<!-- Generator: Adobe Illustrator 25.4.1, SVG Export Plug-In . SVG Version: 6.00 Build 0)  -->
<svg version="1.1" id="Layer_1" xmlns="http://www.w3.org/2000/svg" xmlns:xlink="http://www.w3.org/1999/xlink" x="0px" y="0px"
	 viewBox="0 0 24 24" style="enable-background:new 0 0 24 24;" xml:space="preserve">
<style type="text/css">
	.st0{fill:#BD9E59;}
</style>
<g>
	<path class="st0" d="M13.7,8.7c0.1-0.3,0-0.8,0-1.2c0.2,0.1,0.3,0.3,0.5,0.4c0.3,0.2,0.6,0.4,0.9,0.5c0.3,0.1,1-0.2,1.2-0.5
		c0.2-0.4,0-0.7-0.2-1c-0.6-0.6-1.2-1-2.1-1.2C13.3,5.6,13,5.4,13,4.9c0-0.5,0.1-0.8,0.7-1c0.5-0.2,0.6-0.4,0.3-0.8
		c-0.4-0.7-0.9-1.2-1.7-1.4c-1.2-0.3-2,0.3-2.7,1.2c-0.4,0.5-0.4,0.6,0.2,1c0.1,0,0.1,0.1,0.2,0.1c0.5,0.3,0.6,0.5,0.5,1
		c-0.1,0.5-0.4,0.8-0.8,0.8C8.8,5.8,8.1,6.3,7.5,6.9C6.8,7.7,6.8,8,7.9,8.3c0.7,0.2,1,0.1,1.4-0.4c0.2-0.2,0.4-0.4,0.6-0.5
		c0,0,0.1,0.1,0.1,0.1C9.9,7.7,9.8,7.9,9.7,8.2c0,0.1-0.1,0.3,0,0.5c0.7,1.7,0.9,3.5,0.8,5.3c0,2-0.1,3.9,0.3,5.9
		c0.2,0.9,0.4,1.7,1,2.6c0.2-0.5,0.5-1,0.6-1.4c0.5-2.3,0.7-4.6,0.6-7C12.9,12.2,13.1,10.4,13.7,8.7z"/>
	<path class="st0" d="M8.3,9.3C6.8,8.6,5.3,8,3.9,7.3C3.6,7.2,3.2,7.1,2.9,7c-0.2,0.9,0,1.5,0.8,1.9c0.9,0.5,1.8,1,2.7,1.5
		c0.2,0.1,0.3,0.2,0.4,0.3c0,0,0,0.1-0.1,0.1c-0.1,0-0.2,0-0.3-0.1C5.6,10.5,4.8,10.1,4,9.8c-0.3-0.1-0.5,0.1-0.4,0.3
		c0.3,0.6,0.5,1.3,1.2,1.6c2.2,1.2,3.8,3,4.3,5.6c0.1,0.4,0.3,0.7,0.5,1c0.1,0,0.1,0,0.2,0c0-0.2,0.1-0.4,0.1-0.6
		c-0.2-2.4-0.4-4.7-0.5-7.1C9.3,10,8.9,9.5,8.3,9.3z"/>
	<path class="st0" d="M20.2,7.2c-1.8,0.7-3.5,1.5-5.3,2.3c-0.4,0.2-0.6,0.5-0.7,0.9c-0.2,2.5-0.4,5-0.6,7.5c0,0.1,0,0.3,0,0.4
		c0.1,0,0.1,0,0.2,0c0.2-0.5,0.5-1,0.6-1.5c0.6-2.3,2-3.9,4-4.9c0.9-0.5,1.2-1.3,1.3-2.2c-1,0.4-1.9,0.7-2.8,1.1
		c0.1-0.2,0.2-0.3,0.3-0.3c0.8-0.5,1.6-1,2.4-1.4c0.6-0.3,0.9-0.8,1-1.5C20.8,7.1,20.6,7,20.2,7.2z"/>
</g>
</svg>
