<?xml version="1.0" encoding="utf-8"?>
<!-- Generator: Adobe Illustrator 25.4.1, SVG Export Plug-In . SVG Version: 6.00 Build 0)  -->
<svg version="1.1" id="Layer_1" xmlns="http://www.w3.org/2000/svg" xmlns:xlink="http://www.w3.org/1999/xlink" x="0px" y="0px"
	 viewBox="0 0 24 24" style="enable-background:new 0 0 24 24;" xml:space="preserve">
<style type="text/css">
	.st0{fill:#BD9E59;}
</style>
<path class="st0" d="M18.6,5.9c-0.4,0.4-0.7,0.9-1.1,1.2c-0.7,0.5-1,1.3-1.1,2.1c-0.1,0.4-0.1,0.9-0.2,1.3c-0.3,1.5-1.1,2.6-2.5,3.2
	c-0.3,0.1-0.4,0.3-0.4,0.6c0,1,0,2.1,0,3.1c0.1,0.1,0.1-0.1,0.2-0.1c1-1.5,2.4-2,4.2-1.9c0.2,0,0.2,0.1,0.2,0.3
	c-0.1,1.7-1.6,3-3.3,2.9c-0.2,0-0.4,0-0.6,0c-0.5,0-0.8,0.3-0.9,0.7c-0.1,0.2-0.1,0.5-0.2,0.8c-0.1,0.8-0.2,0.9-0.8,1.3
	c-0.5-0.5-0.3-1.1-0.2-1.7c0.1-0.3,0.1-0.5,0.2-0.8c0.1-0.9-0.3-1.3-1.1-1.6c-0.5-0.2-1-0.3-1.5-0.6c-0.9-0.6-1.4-1.3-1.5-2.4
	c0-0.3,0-0.4,0.3-0.5c1-0.2,1.8,0.1,2.5,0.9c0.6,0.6,1,1.3,1.4,2.1c0.1-0.9,0-1.8,0-2.6c0-0.2-0.2-0.3-0.4-0.4
	c-0.4-0.1-0.9-0.2-1.2-0.4c-1.1-0.6-1.7-1.6-1.9-2.9C8.4,9.3,8.1,8.1,7.2,7.1C7,6.8,6.8,6.6,6.6,6.4C6.4,6.3,6.2,6.2,6.2,5.9
	c1.3,0,2.6,0.3,3.7,1c1.6,0.9,2.5,2.4,3.3,3.9c0.1,0.1,0.1,0.4,0.2,0.3c0.2-0.1,0-0.3,0-0.4c-0.4-1.1-0.9-2.1-1.4-3
	c-0.1-0.1-0.2-0.3,0.1-0.4c2-0.9,4-1.5,6.2-1.4C18.4,5.9,18.4,5.9,18.6,5.9z"/>
<path class="st0" d="M13.3,5.9c-0.5,0.3-1,0.5-1.5,0.8c-0.2,0.1-0.4,0.1-0.6,0c-0.8-0.3-1.6-0.6-2.3-1C8.5,5.5,8.2,5.1,8.2,4.6
	c0-0.4,0.3-0.6,0.7-0.7c0.9-0.2,1.8-0.1,2.6,0.4C12.2,4.6,12.8,5.2,13.3,5.9z"/>
<path class="st0" d="M12.8,4.1c0.8-0.6,1.7-0.6,2.7-0.5c0.2,0,0.3,0.1,0.4,0.3C16,4.2,16.2,4.6,16.4,5c-0.6,0.2-1.2,0.3-1.9,0.5
	c-0.3,0.1-0.6,0-0.8-0.3C13.4,4.8,13.1,4.5,12.8,4.1z"/>
</svg>
