<?xml version="1.0" encoding="utf-8"?>
<!-- Generator: Adobe Illustrator 24.2.3, SVG Export Plug-In . SVG Version: 6.00 Build 0)  -->
<svg version="1.1" id="Layer_1" xmlns="http://www.w3.org/2000/svg" xmlns:xlink="http://www.w3.org/1999/xlink" x="0px" y="0px"
	 viewBox="0 0 58 58" style="enable-background:new 0 0 58 58;" xml:space="preserve">
<g fill="#a0a0a0">
	<path d="M16.87,54.11c12.33-5.2,20.62-16.91,21.61-29.52c0.19-2.37-0.29-4.7-0.83-6.94l3.26,0c4.95,3.66,8.32,9.61,8.32,15.97
		c0,13.9-13.37,28.06-29.36,23.52L16.87,54.11z M17.3,14.87c10.16-5.19,22.88-3.96,32.45,2.63c1.8,1.24,3.23,2.89,4.55,4.54
		l1.7-2.16c-0.05-5.39-2.56-11.05-7.13-14.7c-9.98-7.99-27.11-7.26-32.18,5.97L17.3,14.87z M26.63,39.64
		c-9.65-6.51-15.01-18.77-14.12-31.03c0.17-2.31,0.88-4.49,1.64-6.58l-2.74-0.4C6.76,4.55,3.11,9.87,2.25,15.99
		c-1.9,13.37,7.4,28.62,21.46,26.2L26.63,39.64z"/>
</g>
</svg>
