<?xml version="1.0" encoding="utf-8"?>
<!-- Generator: Adobe Illustrator 24.2.3, SVG Export Plug-In . SVG Version: 6.00 Build 0)  -->
<svg version="1.1" id="Layer_1" xmlns="http://www.w3.org/2000/svg" xmlns:xlink="http://www.w3.org/1999/xlink" x="0px" y="0px"
	 viewBox="0 0 58 58" style="enable-background:new 0 0 58 58;" xml:space="preserve">
<g fill="#a0a0a0">
	<path d="M36.2,33c0.9,2.2,1.5,4.4,1,6.8c-0.2,0.9-0.6,1.5-1.6,1.7c-9.6,1.8-20.5-3.1-25.3-11.4C4,19.4,8.6,6.5,20.4,1.8
		c7.8-3.2,15-2,21.5,3.4c3.7,3,4.2,7.1,3.7,11.5c-0.1,0.9-0.3,1.7-0.8,2.6c-0.2-0.4-0.3-0.8-0.4-1.3C41,7.6,26.5,4.5,19.3,12.6
		c-4.8,5.3-3.7,13.4,2.3,18c3.9,3,8.3,3.9,13.1,2.8C35.2,33.2,35.7,33.2,36.2,33z M37.1,28.3c6.8,5.7,5.9,15.6-1.7,20
		c-5.5,3.2-13.5,2.2-18.1-2.3c-2-1.9-3.3-4.2-4-6.9c-1.7,3.6-1,8.6,1.7,11.9c6.6,8.3,18.8,9.4,27.8,2.5c7.8-6,10-16.3,5.1-24.9
		c-4.8-8.4-15.1-13.4-24.6-11.9c-1.7,0.2-2.7,1.2-2.5,2.9c0.2,1.9,0.7,3.6,1.1,5.6C27.8,23.7,32.8,24.6,37.1,28.3z"/>
</g>
</svg>
