<?xml version="1.0" encoding="utf-8"?>
<!-- Generator: Adobe Illustrator 24.2.3, SVG Export Plug-In . SVG Version: 6.00 Build 0)  -->
<svg version="1.1" id="Layer_1" xmlns="http://www.w3.org/2000/svg" xmlns:xlink="http://www.w3.org/1999/xlink" x="0px" y="0px"
	 viewBox="0 0 58 58" style="enable-background:new 0 0 58 58;" xml:space="preserve">
<g fill="#a0a0a0">
	<path d="M32.36,34.74c0.15,6.55-0.47,13.02-1.69,19.44c-0.08,0.4-0.13,0.83-0.31,1.18c-0.44,0.87-0.96,1.7-1.49,2.63
		c-1.49-2.2-2.09-4.61-2.57-7.06c-1.1-5.57-0.82-11.19-0.72-16.81c0.09-4.96-0.39-9.82-2.26-14.48c-0.16-0.41-0.08-0.94-0.02-1.41
		c0.05-0.36,0.25-0.69,0.38-1.03c0.13-0.33,0.25-0.67,0.18-1.2c-0.56,0.47-1.22,0.87-1.66,1.43c-1.31,1.68-2.25,1.99-4.25,1.25
		c-0.08-0.03-0.16-0.05-0.23-0.08c-2.53-1.02-2.68-1.78-0.81-3.74c1.72-1.8,3.66-3.12,6.22-3.39c1.26-0.13,2.08-1.11,2.3-2.38
		c0.22-1.29-0.38-2.09-1.46-2.68c-2.31-1.25-2.36-1.58-0.58-3.59c3.65-4.12,9.02-3.71,11.89,0.91c0.79,1.27,0.58,1.93-0.76,2.49
		c-1.72,0.71-2.17,1.32-2.07,2.76c0.1,1.44,0.78,2.21,2.54,2.51c2.37,0.41,4.3,1.5,5.9,3.27c0.75,0.84,1.37,1.68,0.78,2.84
		c-0.46,0.91-2.38,1.7-3.46,1.3c-0.78-0.29-1.48-0.82-2.18-1.3c-0.53-0.37-0.99-0.82-1.49-1.24c0,1.22,0.3,2.4-0.05,3.34
		C32.68,24.6,32.24,29.64,32.36,34.74z M19.33,21.41c-4.19-1.85-8.39-3.69-12.59-5.5c-0.81-0.35-1.69-0.52-2.53-0.77
		c-0.76,2.27-0.08,4.12,2.01,5.32c2.55,1.47,5.16,2.84,7.74,4.27c0.39,0.21,0.74,0.49,1.11,0.74c-0.06,0.11-0.11,0.23-0.17,0.34
		c-0.4-0.13-0.81-0.24-1.2-0.38c-2.15-0.79-4.29-1.59-6.45-2.37c-0.27-0.1-0.68-0.14-0.87,0c-0.19,0.15-0.34,0.63-0.24,0.83
		c0.86,1.74,1.54,3.54,3.46,4.6c6.22,3.43,10.47,8.41,11.91,15.56c0.21,1.04,0.83,1.99,1.27,2.98c0.15-0.01,0.31-0.02,0.46-0.03
		c0.12-0.55,0.37-1.1,0.33-1.63c-0.48-6.75-1.04-13.49-1.51-20.23C21.92,23.25,20.94,22.12,19.33,21.41z M52.49,15.55
		c-4.86,2.04-9.72,4.12-14.58,6.17c-1.29,0.55-1.96,1.47-2.07,2.91c-0.5,6.99-1.06,13.98-1.57,20.97c-0.03,0.39,0.12,0.79,0.19,1.19
		c0.15,0.03,0.3,0.05,0.45,0.08c0.65-1.57,1.32-3.12,1.95-4.7c0.59-1.48,1.02-3.04,1.73-4.45c2.07-4.11,5.45-6.91,9.49-8.95
		c2.5-1.27,3.12-3.55,3.55-6.14c-2.68,1.03-5.2,1.99-7.71,2.95c-0.08-0.12-0.17-0.25-0.25-0.37c2.56-1.51,5.1-3.08,7.69-4.53
		c1.57-0.87,2.43-2.13,2.66-3.87C54.25,15.25,53.91,14.95,52.49,15.55z"/>
</g>
</svg>
