<?xml version="1.0" encoding="utf-8"?>
<!-- Generator: Adobe Illustrator 24.2.3, SVG Export Plug-In . SVG Version: 6.00 Build 0)  -->
<svg version="1.1" id="Layer_1" xmlns="http://www.w3.org/2000/svg" xmlns:xlink="http://www.w3.org/1999/xlink" x="0px" y="0px"
	 viewBox="0 0 58 58" style="enable-background:new 0 0 58 58;" xml:space="preserve">
<g>
		<g fill="#a0a0a0">
		<path d="M49.9,37.3c0.3-0.3,2.4-1.6,2.7-1.9c3.4-2.9,5.3-6.5,5.4-11c0-1.3-0.5-2.7-1.1-3.8c-0.7-1.4-2-1.6-3.3-1.1
			c-1.4,0.6-2.3,2-1.9,3.4c0.2,0.6,0.7,1.2,1.2,1.5c0.3,0.2,0.9-0.4,1.4-0.6c0.3-0.1,0.7-0.5,1-0.4c0.3,0.1,0.6,0.6,0.6,0.9
			c0.1,1.5-0.3,2.9-1.4,4c-1.2,1.1-2.9,0.6-3.6-0.9c-1-2-1.2-4.1-0.8-6.3c0.7-4.1,0.4-8.3-0.1-12.4c0-0.2-0.1-0.4-0.2-0.7
			c-3.2,0.5-6.2,1.8-8.8,3.6c-1.5,1-2.6,1.2-4.2,0.3c-2.3-1.4-5-1.6-7.6-1.5c-2.6-0.1-5.3,0.2-7.6,1.5c-1.7,1-2.8,0.8-4.2-0.3
			c-2.6-1.8-5.6-3-8.8-3.6C8.2,8.3,8.1,8.5,8.1,8.7C7.5,12.9,7.2,17,8,21.1c0.4,2.2,0.2,4.3-0.8,6.3c-0.7,1.5-2.4,2-3.6,0.9
			c-1.1-1-1.5-2.5-1.5-4c0-0.3,0.3-0.8,0.6-0.9c0.3-0.1,0.7,0.2,1,0.4c0.5,0.2,1.1,0.7,1.4,0.6c0.5-0.3,1.1-0.9,1.2-1.5
			c0.4-1.3-0.5-2.8-1.9-3.4c-1.2-0.6-2.6-0.3-3.3,1.1C0.5,21.8,0,23.2,0,24.5c0.1,4.5,2,8.1,5.4,11c0.3,0.3,2.4,1.6,2.7,1.9
			C8.1,37.5,8.1,38,8,38.1c-1.6-0.7-3.3-1.3-6.6-3.5c0.7,2,2.4,4.6,4.5,6.6c4.1,4,9.1,6.2,14.5,7.5c2.8,0.7,5.7,1.4,8.5,1.4h0
			c2.8,0,5.7-0.7,8.5-1.4c5.4-1.3,10.4-3.4,14.5-7.5c2.1-2.1,3.9-4.7,4.5-6.6c-3.3,2.2-5,2.8-6.6,3.5C49.9,37.9,49.9,37.5,49.9,37.3
			z M23.6,36.7c-1.9,2.2-4.6,2.3-6.6,0.1c-2.6-2.9-2.6-8.6,0-11.5c1.8-2,4.4-2,6.2-0.1c1.4,1.4,2.1,3.5,2.1,6.9
			C25.5,33.2,25,35.1,23.6,36.7z M29,42.4c-0.4,0.7-1.9,0.9-3.8,1c1.2-1,2.9-2.6,3.8-3.5c1,0.8,2.4,2.5,3.6,3.5
			C30.8,43.3,29.4,43.2,29,42.4z M42.1,34.9c-0.1,0.2-0.2,0.5-0.3,0.7c-0.1,0.2-0.3,0.4-0.4,0.6c-0.1,0.2-0.3,0.4-0.5,0.6
			c-2,2.2-4.7,2.1-6.5-0.1c-0.5-0.6-0.9-1.2-1.2-1.9c-0.1-0.2-0.2-0.4-0.3-0.6c0-0.1-0.1-0.2-0.1-0.3c-0.2-0.7-0.3-1.3-0.3-1.8
			c0-3.4,0.8-5.5,2.1-6.9c0.5-0.5,1-0.9,1.5-1.1c0.4-0.2,0.8-0.3,1.2-0.3c0.3,0,0.6,0,0.8,0c0.5,0.1,1.1,0.3,1.6,0.6
			c0.4,0.2,0.7,0.5,1.1,0.9c0.5,0.5,0.9,1.1,1.2,1.8c0,0.1,0.1,0.1,0.1,0.2c0.1,0.3,0.3,0.7,0.3,1c0,0.2,0.1,0.3,0.1,0.5
			c0,0.2,0.1,0.5,0.1,0.7c0,0.3,0.1,0.5,0.1,0.8c0,0.3,0,0.5,0,0.8C42.9,32.4,42.6,33.7,42.1,34.9z"/>
	</g>
</g>
</svg>
