<?xml version="1.0" encoding="utf-8"?>
<!-- Generator: Adobe Illustrator 25.4.1, SVG Export Plug-In . SVG Version: 6.00 Build 0)  -->
<svg version="1.1" id="Layer_1" xmlns="http://www.w3.org/2000/svg" xmlns:xlink="http://www.w3.org/1999/xlink" x="0px" y="0px"
	 viewBox="0 0 24 24" style="enable-background:new 0 0 24 24;" xml:space="preserve">
<style type="text/css">
	.st0{fill:#BD9E59;}
</style>
<path class="st0" d="M16,22.2c-0.3,0-0.6,0-0.9,0c-0.8,0-1-0.2-1.1-1c0-0.8-0.1-1.7-0.2-2.5c-0.1-0.4-0.1-0.9-0.3-1.3
	c-0.2-0.3-0.5-0.6-0.9-0.6c-0.4,0-0.6,0.3-0.8,0.6c-0.4,0.8-0.4,1.6-0.3,2.5c0.1,0.5,0.2,1,0.2,1.5c0,0.4-0.2,0.6-0.6,0.6
	c-0.7,0-1.3,0.2-2,0c-0.2,0-0.4-0.2-0.4-0.4c-0.1-0.2-0.1-0.5,0.1-0.6c0.9-0.5,0.7-1.4,0.7-2.1c0-0.3-0.1-0.5-0.2-0.8
	c-0.6-1.7-0.7-3.5-0.6-5.4c0-0.5,0-0.9,0-1.4c0-0.3,0-0.7-0.4-0.7c-0.4,0-0.7,0.1-0.9,0.5c-0.6,1.3-0.7,2.7,0.1,3.9
	c0.5,0.7,0.5,0.8-0.3,1.3c-0.6,0.4-0.7,1.1-0.7,1.8c0,0.6-0.2,0.7-0.8,0.8c-0.7,0-1.4,0.2-2.2,0.3c-0.7,0.1-0.9-0.1-1-0.8
	c-0.2-1.3-0.3-2.6-0.4-3.9c-0.1-0.9-0.2-1.9-0.3-2.8c-0.1-0.7,0-1.4,0.6-1.9c1.1-1.1,2.1-2.2,3.1-3.3c0.7-0.9,1.8-1.1,2.8-1.2
	c1.7-0.3,2.2-0.8,2.5-2.5c0-0.3,0.2-0.5,0.5-0.7c0.4-0.2,0.9-0.3,1.3-0.3c0.3,0,0.4,0.2,0.6,0.4c0.4,0.7,0.8,1.5,1.2,2.3
	c0.3,0.5,0.7,0.8,1.3,1.1C17,6.1,18,6.6,19.1,7c0.4,0.1,0.7,0.4,0.9,0.8c0.4,0.9,0.9,1.7,1.3,2.5c0.6,1.5,0.8,3,0.7,4.6
	c-0.1,0.9-0.2,1.8-0.3,2.7c-0.1,0.7-0.3,0.9-1,1c-0.8,0.2-1.7,0.1-2.5,0.1c-0.2,0-0.3-0.1-0.3-0.3c-0.1-0.4-0.2-0.8-0.3-1.2
	c-0.1-0.3-0.2-0.5-0.6-0.4c-0.3,0-0.4-0.1-0.5-0.3c-0.1-0.2,0-0.4,0.1-0.5c0.8-0.7,0.8-1.6,0.5-2.6c-0.2-0.6-0.4-1.2-0.5-1.8
	c0-0.2-0.2-0.3-0.3-0.5c-0.1-0.2-0.3-0.2-0.4,0c-0.3,0.3-0.5,0.7-0.5,1.2c-0.1,1.4,0.1,2.8,0.3,4.1c0.1,1.3,0.2,2.5,0.4,3.8
	c0,0.5,0.4,0.9,0.8,1.1c0.3,0.1,0.7,0.2,0.6,0.6c-0.1,0.4-0.5,0.4-0.8,0.4C16.5,22.1,16.2,22.1,16,22.2C16,22.2,16,22.2,16,22.2z"/>
</svg>
