<?xml version="1.0" encoding="utf-8"?>
<!-- Generator: Adobe Illustrator 25.4.1, SVG Export Plug-In . SVG Version: 6.00 Build 0)  -->
<svg version="1.1" id="Layer_1" xmlns="http://www.w3.org/2000/svg" xmlns:xlink="http://www.w3.org/1999/xlink" x="0px" y="0px"
	 viewBox="0 0 24 24" style="enable-background:new 0 0 24 24;" xml:space="preserve">
<style type="text/css">
	.st0{fill:#BD9E59;}
</style>
<path class="st0" d="M12,20.7c-0.7,0-1-0.3-1-1c0-0.8,0-0.8-0.8-1c-2.7-0.8-4.3-2.6-5-5.3C5.2,13,5.1,13,4.7,13c-0.1,0-0.3,0-0.5,0
	c-0.6,0-0.9-0.4-1-1c0-0.6,0.3-1,0.9-1c0.3,0,0.7,0.1,0.9-0.1c0.2-0.2,0.1-0.5,0.2-0.8c0.8-2.6,2.6-4.3,5.3-4.9
	C11,5.2,11.1,5.1,11,4.8c0-0.1,0-0.3,0-0.5c0-0.6,0.4-1,1-1c0.6,0,1,0.3,1,1c0,0.8,0,0.8,0.8,1c2.7,0.8,4.3,2.6,4.9,5.3
	c0.1,0.3,0.2,0.4,0.5,0.4c0.2,0,0.4,0,0.5,0c0.6,0,0.9,0.4,0.9,1c0,0.6-0.3,0.9-1,1c-0.9,0-0.8,0-1.1,0.8c-0.8,2.7-2.6,4.3-5.3,4.9
	c-0.3,0.1-0.4,0.2-0.4,0.5c0,0.2,0,0.4,0,0.5C12.9,20.3,12.6,20.7,12,20.7z M12,13.2c0.8,0.9,1.2,1.8,1,3c0,0.1,0,0.2,0,0.4
	c0,0.3,0.1,0.3,0.3,0.2c1.6-0.5,2.6-1.5,3.3-3c0.3-0.8,0.3-0.8-0.5-0.7c-1.1,0.1-2.1-0.3-2.9-1c0.8-0.8,1.8-1.2,3-1
	c0.1,0,0.2,0,0.2,0c0.4,0.1,0.4-0.1,0.3-0.4c-0.5-1.4-1.4-2.5-2.7-3.1c-1-0.4-1-0.4-0.9,0.6c0.1,1.1-0.4,1.9-1,2.7
	c-0.8-0.9-1.2-1.8-1-3c0-0.1,0-0.2,0-0.2c0-0.3,0-0.4-0.4-0.3c-1.5,0.5-2.5,1.4-3.1,2.8c-0.4,0.9-0.4,1,0.6,0.9
	c1.1-0.1,1.9,0.4,2.7,1c-0.9,0.8-1.8,1.2-3,1c-0.1,0-0.2,0-0.3,0c-0.3,0-0.4,0.1-0.3,0.4c0.5,1.6,1.5,2.7,3.1,3.3
	c0.6,0.2,0.6,0.2,0.6-0.4c0-0.4,0-0.8,0-1.3c0-0.2,0-0.3,0.1-0.4C11.4,14.1,11.7,13.6,12,13.2z"/>
</svg>
