<?xml version="1.0" encoding="utf-8"?>
<!-- Generator: Adobe Illustrator 25.4.1, SVG Export Plug-In . SVG Version: 6.00 Build 0)  -->
<svg version="1.1" id="Layer_1" xmlns="http://www.w3.org/2000/svg" xmlns:xlink="http://www.w3.org/1999/xlink" x="0px" y="0px"
	 viewBox="0 0 24 24" style="enable-background:new 0 0 24 24;" xml:space="preserve">
<style type="text/css">
	.st0{fill:#BD9E59;}
</style>
<path class="st0" d="M14,5.1c-0.4,0.2-0.7,0.4-1,0.4c-0.6,0.1-1.1-0.1-1.4-0.6C11.3,4.7,11.2,4.6,11,5c-0.4,0.9-0.6,1-1.6,0.8
	c-0.1,0-0.2-0.1-0.4,0c0.2,0.2,0.4,0.4,0.5,0.6C9.7,6.6,9.9,6.6,10,6.6c0.7,0,1.1,0.3,1.3,1c0.1,0.7,0.4,1.3,0.6,1.9
	c0.1,0.2,0,0.3-0.1,0.5c-0.6,0.7-1.3,1-2.2,0.4C9.2,10.1,8.7,10,8.2,9.9c-1.9-0.2-3.5,1.2-3.6,3.1c-0.1,1.9,1.3,3.4,3.2,3.4
	c0.6,0,1.2,0,1.7-0.1c0.2,0,0.3,0,0.4,0.2c0.1,0.3,0.2,0.7,0.3,1c0.2,0.5,0,0.7-0.4,0.8c-3,1.2-6.8-0.9-7.4-4.2
	C2,12.3,2.6,10.7,3.9,9.4c0.4-0.4,0.6-0.9,0.7-1.4c0.2-1.1,0.6-1.3,1.7-1.4c0.2,0,0.4,0,0.4-0.3c0.1-0.5,0.5-0.9,1-1
	C8,5.2,8.1,5.1,8.1,4.8c0-1.2,1-1.8,2.1-1.3c0.6,0.2,0.9,0.2,1.4-0.3c0.8-0.9,2-0.8,2.5,0.4C14.2,3.9,14.5,4,14.9,4
	c0.2,0,0.5,0,0.7,0c1.1,0.1,1.6,1,1.2,2c-0.1,0.3-0.1,0.4,0.1,0.6c0.4,0.3,0.5,0.9,0.6,1.4c0.1,0.3,0.2,0.5,0.6,0.5
	c0.7,0,1.2,0.4,1.3,1.1c0.1,0.8,0.6,1.3,1.1,1.9c1.4,1.6,1.8,3.4,1.1,5.4c-0.7,2-2.2,3.2-4.2,3.6c-3.3,0.7-6.3-1.3-6.8-4.5
	c-0.3-1.6,0.1-3.1,1.2-4.4c0.6-0.7,1.2-1.4,1.2-2.4c0-0.4,0.4-0.5,0.7-0.6c0.8-0.1,1.3-0.4,1.3-1.3c0-0.1,0.1-0.2,0.2-0.3
	c0.1-0.1,0.1-0.2,0-0.2c-0.8-0.2-0.9-0.9-1-1.5C14,5.2,14,5.1,14,5.1z M16.1,11.7c-1.9,0-3.4,1.5-3.5,3.3c0,1.9,1.6,3.5,3.5,3.5
	c1.8,0,3.5-1.6,3.4-3.3C19.6,13.2,18.1,11.7,16.1,11.7z"/>
</svg>
