<?xml version="1.0" encoding="utf-8"?>
<!-- Generator: Adobe Illustrator 25.4.1, SVG Export Plug-In . SVG Version: 6.00 Build 0)  -->
<svg version="1.1" id="Layer_1" xmlns="http://www.w3.org/2000/svg" xmlns:xlink="http://www.w3.org/1999/xlink" x="0px" y="0px"
	 viewBox="0 0 24 24" style="enable-background:new 0 0 24 24;" xml:space="preserve">
<style type="text/css">
	.st0{fill:#BD9E59;}
</style>
<path class="st0" d="M4.9,16.8c0.8,0.3,1.5,0.1,2.2,0c0.6-0.1,1.2-0.2,1.7-0.4c0.3-0.1,0.5,0,0.7,0.1c1.4,0.6,2.8,1.2,4.2,1.8
	c0.3,0.1,0.4,0.2,0.4,0.5c0,0.3,0,0.7-0.1,1c-0.3,1-1.2,1.6-2.3,1.5c-1.1-0.1-1.8-1-1.9-2.1c0-0.5,0-1,0-1.6C9.2,17.8,8.6,18,8,18.1
	c-1,0.2-2,0.4-3,0.2c-1.4-0.2-1.9-1.3-1.3-2.5c0.4-0.9,1.2-1.5,1.9-2.1c0.1-0.1,0.2-0.2,0.4-0.3c-0.3-0.3-0.6-0.5-0.9-0.8
	c-0.4-0.4-0.9-0.9-1.2-1.4c-0.4-0.6-0.7-1.2-0.3-1.9c0.4-0.7,1-0.9,1.7-0.9c1.4-0.1,2.7,0.3,4.1,0.7c0.1,0,0.3,0.1,0.5,0.1
	c0-0.8,0-1.5,0-2.2c1.4,0.4,2.8,0.4,4.2,0c0,0.5,0,1,0,1.5c-1.3,0.6-2.6,1.1-3.9,1.7c-0.7,0.3-1.2,0.3-1.9,0.1
	c-0.9-0.2-1.8-0.3-2.7-0.4c-0.2,0-0.4,0.1-0.7,0.1c0.6,1.1,1.5,1.8,2.4,2.5c1.8-1.1,3.6-2.1,5.6-2.8c1.5-0.6,3-1.1,4.6-1.2
	c0.6-0.1,1.3,0,1.9,0.1c1,0.2,1.4,1.1,1,2.1c-0.3,0.9-1,1.4-1.6,2c-0.3,0.2-0.5,0.5-0.6,0.5c0.5,0.6,1,1.2,1.5,1.8
	c0.3,0.3,0.5,0.7,0.6,1.1c0.4,0.9,0,1.7-0.9,2c-0.9,0.3-1.8,0.2-2.7,0c-3.3-0.6-6.2-2-9.1-3.7c-0.3-0.2-0.5-0.2-0.8,0
	c-0.5,0.5-1,0.9-1.5,1.4C5.2,16.3,5.1,16.5,4.9,16.8z M19,10.1c-3.9-0.1-7.1,1.6-10.4,3.4c1,0.6,2,1.1,3,1.6
	c1.8,0.8,3.7,1.5,5.7,1.8c0.5,0.1,1.1,0,1.7,0c0-0.2-0.1-0.2-0.1-0.3c-0.5-0.9-1.4-1.5-2.2-2.2c-0.1,0-0.2,0-0.3,0.1
	c-0.4,0.2-0.9,0.5-1.3,0.8c-0.2,0.1-0.5,0.1-0.6,0.1c-1.4-0.5-2.9-1.1-4.3-1.6c-0.1,0-0.2-0.1-0.2-0.1c0,0,0-0.1,0-0.1
	c1.5-0.7,3.1-1.3,4.6-2c0.1-0.1,0.3,0,0.5,0.1c0.6,0.3,1.1,0.6,1.7,1C17.6,11.9,18.6,11.2,19,10.1z"/>
<path class="st0" d="M12.1,3.5c0.7,0.1,1.4,0.3,2.1,0.4c0.4,0.1,0.6,0.4,0.6,0.8c0,0.2,0,0.4,0,0.6c0,0.7-0.1,0.9-0.8,1.1
	c-1.4,0.4-2.8,0.4-4.1,0c-0.7-0.2-0.7-0.3-0.7-1c0-0.1,0-0.3,0-0.4c0-0.8,0.1-0.9,0.9-1.1C10.7,3.7,11.4,3.6,12.1,3.5z"/>
</svg>
