<?xml version="1.0" encoding="utf-8"?>
<!-- Generator: Adobe Illustrator 25.4.1, SVG Export Plug-In . SVG Version: 6.00 Build 0)  -->
<svg version="1.1" id="Layer_1" xmlns="http://www.w3.org/2000/svg" xmlns:xlink="http://www.w3.org/1999/xlink" x="0px" y="0px"
	 viewBox="0 0 24 24" style="enable-background:new 0 0 24 24;" xml:space="preserve">
<style type="text/css">
	.st0{fill:#BD9E59;}
</style>
<path class="st0" d="M13.6,20.3c-0.2-1.4-0.3-2.8-0.5-4.1c0-0.1,0-0.2,0-0.3c0-0.1,0-0.1-0.1-0.1c-0.1,0-0.1,0.1-0.1,0.1
	c0,0.1,0,0.2,0,0.3c0,1.3,0,2.6,0,3.9c0,0.2,0.1,0.3-0.2,0.3c-2.5-0.1-4.8-0.5-7-1.9C5,18.1,5,18,5.2,17.2c0.4-1.5,1-2.9,1.9-4.2
	c0.1-0.2,0.1-0.3,0-0.5c-0.5-0.6-0.4-1.3,0.1-1.9c1-1.3,1.9-2.7,2.9-4.1C11.2,5,13,5,14.1,6.5c1,1.4,2,2.8,2.9,4.2
	c0.5,0.7,0.4,1.3-0.1,1.8c-0.2,0.2-0.2,0.4,0.1,0.6c0.7,0.6,1.1,1.4,1.4,2.2c0.2,0.7,0.5,1.5,0.7,2.3c0.1,0.3,0,0.6-0.3,0.7
	C17.2,19.3,15.5,20,13.6,20.3z M10,9.2c-0.4,1.8,0.2,3.2,1.7,4.1c0.3,0.2,0.6,0.3,0.9,0c1.3-1,2-2.2,1.7-3.9c0-0.2-0.1-0.2-0.3-0.2
	c-0.4,0.2-0.7,0.2-1.1,0.3C11.8,9.8,10.9,9.5,10,9.2z"/>
<path class="st0" d="M7.3,5.6c0.5,0,0.8,0.2,1.2,0.5c0.3,0.3,0.4,0.7,0,1.2C7.9,8.2,7.3,9.1,6.6,10c-0.5,0.7-0.7,1.4-0.6,2.2
	c0,0.3,0,0.6-0.1,0.8c-0.3,0.6-0.7,1.1-1.1,1.7c-0.1,0.2-0.3,0.2-0.5,0.1c-0.5-0.2-1-0.5-1.5-0.8c-0.3-0.2-0.2-0.4-0.1-0.6
	c0.4-1,0.7-1.9,1.1-2.9c0-0.1,0.2-0.3,0.1-0.4C3.7,9.7,3.9,9.3,4.1,9C4.7,8.1,5.3,7.2,6,6.3C6.3,5.8,6.8,5.6,7.3,5.6z"/>
<path class="st0" d="M20,9.8c-0.1,0.3,0.1,0.6,0.2,1c0.3,0.9,0.6,1.7,1,2.6c0.1,0.3,0.1,0.6-0.2,0.8c-0.5,0.3-1,0.5-1.5,0.8
	c-0.2,0.1-0.2,0-0.3-0.1c-0.4-0.6-0.7-1.2-1.1-1.7c-0.2-0.3-0.1-0.6-0.1-1c0.2-0.7,0-1.4-0.5-2c-0.7-1-1.3-2.1-2-3.2
	c-0.2-0.4-0.2-0.6,0.1-0.9c0.6-0.6,1.7-0.6,2.2,0.1c0.8,0.9,1.4,1.9,2,2.9C20.1,9.3,20.1,9.5,20,9.8z"/>
</svg>
