<?xml version="1.0" encoding="utf-8"?>
<!-- Generator: Adobe Illustrator 25.4.1, SVG Export Plug-In . SVG Version: 6.00 Build 0)  -->
<svg version="1.1" id="Layer_1" xmlns="http://www.w3.org/2000/svg" xmlns:xlink="http://www.w3.org/1999/xlink" x="0px" y="0px"
	 viewBox="0 0 24 24" style="enable-background:new 0 0 24 24;" xml:space="preserve">
<style type="text/css">
	.st0{fill:#BD9E59;}
</style>
<path class="st0" d="M5.4,12.6c0.1-1.8,0.1-3.4,0.5-5c0-0.1,0-0.1,0-0.2c0.2-0.7,0.2-0.7,0.9-0.7c0.7,0,1.4,0,2,0
	c0.3,0,0.5,0.1,0.6,0.4C9.8,7.9,9.9,8.7,10,9.5c0,0.4,0.1,0.8,0.1,1.2c0,0.2,0.1,0.3,0.3,0.3c1.1,0,2.1,0,3.2,0
	c0.3,0,0.3-0.2,0.3-0.4c0.1-1.1,0.2-2.2,0.5-3.3c0.1-0.4,0.3-0.6,0.8-0.6c0.7,0.1,1.4,0,2,0c0.4,0,0.6,0.1,0.7,0.5
	c0.2,0.6,0.3,1.3,0.4,1.9c0.3,2.6,0.3,5.3-0.2,7.9c-0.2,1.2-0.3,1.2-1.5,1.2c-0.5,0-1,0-1.6,0c-0.4,0-0.5-0.1-0.6-0.4
	c-0.3-0.7-0.4-1.5-0.5-2.3c-0.1-0.4-0.1-0.8-0.1-1.3c0-0.2-0.1-0.3-0.3-0.3c-1,0-2.1,0-3.1,0c-0.3,0-0.3,0.1-0.4,0.4
	c0,1-0.2,2.1-0.4,3c0,0.1,0,0.1-0.1,0.2c-0.2,0.7-0.2,0.7-0.9,0.7c-0.7,0-1.4,0-2.1,0c-0.3,0-0.4-0.1-0.5-0.4
	c-0.4-1-0.5-2.1-0.6-3.1C5.4,14,5.4,13.2,5.4,12.6z"/>
<path class="st0" d="M18.9,8.3c0.6,0,1.1,0,1.7,0c0.3,0,0.3,0.2,0.4,0.4c0.3,0.8,0.4,1.6,0.4,2.4c0.1,1.6,0.1,3.2-0.3,4.8
	c-0.2,0.7-0.3,0.7-0.9,0.7c-0.4,0-0.8,0-1.2,0c0-0.4,0.1-0.8,0.1-1.1C19.3,13.1,19.3,10.7,18.9,8.3z"/>
<path class="st0" d="M5.1,16.6c-0.6,0-1.1,0-1.7,0c-0.3,0-0.3-0.2-0.4-0.4c-0.3-0.8-0.3-1.6-0.4-2.3c-0.1-1.6-0.1-3.2,0.3-4.7
	C3.1,8.3,3.2,8.3,4,8.3c0.4,0,0.7,0,1.1,0C5,8.7,5,9,5,9.4C4.7,11.8,4.7,14.2,5.1,16.6z"/>
</svg>
