<?xml version="1.0" encoding="utf-8"?>
<!-- Generator: Adobe Illustrator 25.4.1, SVG Export Plug-In . SVG Version: 6.00 Build 0)  -->
<svg version="1.1" id="Layer_1" xmlns="http://www.w3.org/2000/svg" xmlns:xlink="http://www.w3.org/1999/xlink" x="0px" y="0px"
	 viewBox="0 0 24 24" style="enable-background:new 0 0 24 24;" xml:space="preserve">
<style type="text/css">
	.st0{fill:#BD9E59;}
</style>
<g>
	<path class="st0" d="M12,1.9C12.6,3,13,4,13.4,5c0.3,0.8,0.5,1.6,0.4,2.5c-0.1,2,0.1,4,0.8,5.9c0.1,0.2,0,0.3-0.2,0.3
		c-1.6,0-3.2,0-4.8,0c-0.3,0-0.3-0.1-0.2-0.3c0.7-2,0.9-4,0.8-6.1c0-0.6,0-1.1,0.2-1.7C10.9,4.4,11.4,3.2,12,1.9z"/>
	<path class="st0" d="M17.1,9.3c1.2,1.2,2.3,2.5,2.3,4.3c0,1-0.5,1.8-1.1,2.5c-0.2,0.2-0.4,0.3-0.5,0.5c-0.8,0.9-1.9,0.8-2.9,0.8
		c-0.1,0-0.2-0.1-0.2-0.2c-0.4-0.7-0.8-1.4-1.2-2.1c-0.1-0.2,0-0.3,0.2-0.3c0.4,0,0.8,0,1.2,0c0.9,0,1.9-0.7,2.2-1.5
		c0.3-0.7,0-1.4-0.4-2c-0.1-0.2-0.2-0.4-0.1-0.6C16.7,10.2,16.9,9.7,17.1,9.3z"/>
	<path class="st0" d="M7,9.3c0.2,0.5,0.4,1,0.6,1.5c0.1,0.2,0,0.3-0.1,0.5c-0.4,0.6-0.7,1.2-0.4,1.9c0.2,0.8,1.3,1.6,2.1,1.6
		c0.5,0,1,0,1.7,0c-0.5,0.9-0.9,1.6-1.4,2.4c-0.1,0.1-0.2,0.1-0.3,0.1c-0.5,0-1,0-1.5,0c-0.1,0-0.2,0-0.3-0.1
		C6.1,16.5,5,15.6,4.7,14c-0.2-1,0.1-1.9,0.6-2.7C5.7,10.5,6.2,9.9,7,9.3z"/>
	<path class="st0" d="M12.1,22.2c-1.2,0-1.2-0.2-1.5-1.2c-0.3-0.8-0.3-1.7-0.5-2.5c0-0.1,0-0.2,0.1-0.4c0.6-0.9,1.2-1.8,1.7-2.7
		c0.2-0.3,0.2-0.2,0.3,0c0.5,0.9,1.1,1.8,1.7,2.7c0.1,0.1,0.2,0.2,0.1,0.3c-0.2,1-0.3,2.1-0.6,3.1C13.1,22.2,12.6,22.3,12.1,22.2z"
		/>
</g>
</svg>
