<?xml version="1.0" encoding="utf-8"?>
<!-- Generator: Adobe Illustrator 25.4.1, SVG Export Plug-In . SVG Version: 6.00 Build 0)  -->
<svg version="1.1" id="Layer_1" xmlns="http://www.w3.org/2000/svg" xmlns:xlink="http://www.w3.org/1999/xlink" x="0px" y="0px"
	 viewBox="0 0 24 24" style="enable-background:new 0 0 24 24;" xml:space="preserve">
<style type="text/css">
	.st0{fill:#BD9E59;}
</style>
<path class="st0" d="M10.2,4.8c1.2,1.7,3,2.5,5,2.9c0.8,0.1,0.8,0.1,0.5,0.8c-1.1,3-2.5,6-4.5,8.6c-0.8,1.1-1.8,2.1-2.9,3
	c-0.3,0.2-0.4,0.2-0.6-0.1c-2-2.4-3.2-5.3-3.5-8.4c-0.1-1.1-0.1-2.3,0-3.4c0-0.2,0-0.4,0.3-0.4c2.1-0.5,3.9-1.5,5.6-2.8
	C10.1,4.8,10.2,4.8,10.2,4.8z M6.9,10.9c0,1.5,0.4,2.8,1.2,4c0.7,0.9,0.5,1,1.4,0.1c1.5-1.4,2.2-3.2,2.9-5c0.1-0.2-0.1-0.2-0.2-0.3
	c-0.9-0.2-1.7-0.5-2.3-1.2c-0.2-0.2-0.2-0.1-0.4,0C9,9,8.4,9.4,7.8,9.6C6.9,9.9,6.9,9.9,6.9,10.9z"/>
<path class="st0" d="M12.9,5.6c0.9-0.5,1.8-1.1,2.6-1.8c1.3,1.8,3.2,2.6,5.2,2.9c0.4,0.1,0.5,0.1,0.3,0.6c-1.2,3.1-2.5,6.1-4.5,8.8
	c-0.8,1.1-1.8,2.1-2.9,3c-0.3,0.2-0.5,0.3-0.7-0.1c-0.3-0.4-0.6-0.8-0.9-1.2c-0.2-0.2-0.2-0.4,0-0.6c2.1-3.1,3.6-6.4,4.9-9.9
	c0.1-0.3,0-0.3-0.2-0.4c-1.2-0.2-2.3-0.5-3.4-1C13.2,5.8,13,5.8,12.9,5.6z"/>
</svg>
