<?xml version="1.0" encoding="utf-8"?>
<!-- Generator: Adobe Illustrator 25.4.1, SVG Export Plug-In . SVG Version: 6.00 Build 0)  -->
<svg version="1.1" id="Layer_1" xmlns="http://www.w3.org/2000/svg" xmlns:xlink="http://www.w3.org/1999/xlink" x="0px" y="0px"
	 viewBox="0 0 24 24" style="enable-background:new 0 0 24 24;" xml:space="preserve">
<style type="text/css">
	.st0{fill:#BD9E59;}
</style>
<path class="st0" d="M13.9,17.3c-0.7,0-1.5,0-2.2,0c-0.3,0-0.4,0.1-0.6,0.3c-0.7,0.8-1.5,1.5-2.3,2.3c-0.3,0.3-1.2,0.3-1.6,0
	c-1-1-2-2-3-3c-0.3-0.3-0.3-1.2,0-1.5c0.8-0.8,1.5-1.5,2.3-2.3c0.2-0.2,0.2-0.3,0.2-0.6c0-1.5,0-3,0-4.5c0-0.3,0.1-0.5,0.3-0.7
	c1-1,2-2,3.1-3c0.2-0.2,0.4-0.3,0.6-0.3c1.3,0,2.5,0,3.8,0c0.3,0,0.4,0.1,0.4,0.4C14.8,5,14.6,5.6,14,6.1c-0.9,0.8-1.7,1.7-2.5,2.5
	c-0.3,0.3-0.3,0.4,0,0.8c1.1,1.1,2.2,2.2,3.3,3.3c0.2,0.2,0.3,0.2,0.5,0c1-1,2.1-2.1,3.1-3.1c0.2-0.2,1.4-0.4,1.7-0.3
	c0.1,0.1,0.1,0.1,0.1,0.2c0,1.4,0,2.7,0,4.1c0,0.2-0.1,0.3-0.2,0.4c-1.1,1.1-2.1,2.1-3.2,3.2c-0.2,0.2-0.3,0.2-0.5,0.2
	C15.4,17.3,14.6,17.3,13.9,17.3z"/>
</svg>
