<?xml version="1.0" encoding="utf-8"?>
<!-- Generator: Adobe Illustrator 25.4.1, SVG Export Plug-In . SVG Version: 6.00 Build 0)  -->
<svg version="1.1" id="Layer_1" xmlns="http://www.w3.org/2000/svg" xmlns:xlink="http://www.w3.org/1999/xlink" x="0px" y="0px"
	 viewBox="0 0 24 24" style="enable-background:new 0 0 24 24;" xml:space="preserve">
<style type="text/css">
	.st0{fill:#BD9E59;}
</style>
<path class="st0" d="M9.2,20.3c-0.1-0.8-0.1-1.5-0.2-2.2c0,0-0.1,0-0.1,0c-0.4,1.2-0.8,2.3-1.2,3.5c0,0-0.1,0-0.1,0
	c-0.2-0.9-0.3-1.9-0.5-2.8c0,0-0.1,0-0.1,0c-0.2,0.7-0.5,1.4-0.7,2.1c0,0,0,0-0.1,0C6.2,19.2,6,17.6,5.9,16
	c-0.2-2.8-0.4-5.5-0.6-8.3c-0.1-1.7,0.3-3.1,1.8-4C8.4,3,9.7,3.1,11,4c1.3,0.9,1.7,2.3,1.4,3.8c-1,4.1-2,8.1-3,12.2
	C9.3,20,9.3,20.1,9.2,20.3z M8.8,8.4c0.9,0,1.5-0.7,1.5-1.6c0-0.8-0.7-1.6-1.5-1.6C8,5.3,7.3,5.9,7.3,6.8C7.3,7.7,8,8.4,8.8,8.4z"/>
<path class="st0" d="M12.2,20.7c0.2-1,0.4-2,0.7-3c0,0-0.1,0-0.1,0c-0.4,0.6-0.8,1.2-1.3,1.8c0,0-0.1,0-0.1,0c0.1-0.3,0.2-0.6,0.3-1
	c1.1-3.5,2.1-6.9,3.3-10.4c0.4-1.2,1.2-1.9,2.5-2c1.1-0.1,1.9,0.4,2.5,1.3c0.6,1,0.7,2.1-0.1,3.1c-2.5,3.4-5,6.7-7.6,10.1
	C12.3,20.6,12.3,20.6,12.2,20.7z M17.8,9.8c0.4,0,0.8-0.4,0.8-0.8c0-0.4-0.4-0.8-0.8-0.9C17.4,8.1,17,8.5,17,9
	C17,9.4,17.3,9.8,17.8,9.8z"/>
</svg>
